<mxfile host="65bd71144e">
    <diagram id="ACdAGOo68wZp8PvEogln" name="Page-1">
        <mxGraphModel dx="1152" dy="534" grid="1" gridSize="10" guides="1" tooltips="1" connect="1" arrows="1" fold="1" page="1" pageScale="1" pageWidth="827" pageHeight="1169" math="0" shadow="0">
            <root>
                <mxCell id="0"/>
                <mxCell id="1" parent="0"/>
                <mxCell id="4" value="" style="edgeStyle=none;html=1;fontSize=20;" parent="1" source="2" target="3" edge="1">
                    <mxGeometry relative="1" as="geometry"/>
                </mxCell>
                <mxCell id="2" value="inicio" style="ellipse;whiteSpace=wrap;html=1;fontSize=20;fillColor=#a20025;fontColor=#ffffff;strokeColor=#6F0000;" parent="1" vertex="1">
                    <mxGeometry x="340" y="30" width="120" height="80" as="geometry"/>
                </mxCell>
                <mxCell id="8" value="" style="edgeStyle=none;html=1;fontSize=20;entryX=0.5;entryY=0;entryDx=0;entryDy=0;" parent="1" source="3" target="7" edge="1">
                    <mxGeometry relative="1" as="geometry"/>
                </mxCell>
                <mxCell id="3" value="n" style="shape=parallelogram;perimeter=parallelogramPerimeter;whiteSpace=wrap;html=1;fixedSize=1;fontSize=20;fillColor=#e3c800;fontColor=#000000;strokeColor=#B09500;" parent="1" vertex="1">
                    <mxGeometry x="340" y="200" width="120" height="60" as="geometry"/>
                </mxCell>
                <mxCell id="10" value="" style="edgeStyle=none;html=1;fontSize=20;entryX=0.42;entryY=-0.008;entryDx=0;entryDy=0;entryPerimeter=0;exitX=0;exitY=0.5;exitDx=0;exitDy=0;" parent="1" source="7" target="9" edge="1">
                    <mxGeometry relative="1" as="geometry">
                        <Array as="points">
                            <mxPoint x="173" y="410"/>
                        </Array>
                    </mxGeometry>
                </mxCell>
                <mxCell id="12" value="" style="edgeStyle=none;html=1;fontSize=20;entryX=0.5;entryY=0;entryDx=0;entryDy=0;exitX=1;exitY=0.5;exitDx=0;exitDy=0;" parent="1" source="7" target="11" edge="1">
                    <mxGeometry relative="1" as="geometry">
                        <Array as="points">
                            <mxPoint x="625" y="410"/>
                        </Array>
                    </mxGeometry>
                </mxCell>
                <mxCell id="7" value="10000&amp;lt;= n &amp;lt;=99999" style="rhombus;whiteSpace=wrap;html=1;fontSize=20;fillColor=#647687;fontColor=#ffffff;strokeColor=#314354;" parent="1" vertex="1">
                    <mxGeometry x="320" y="330" width="160" height="160" as="geometry"/>
                </mxCell>
                <mxCell id="25" style="edgeStyle=none;html=1;entryX=0.5;entryY=0;entryDx=0;entryDy=0;fontSize=20;exitX=0.52;exitY=0.883;exitDx=0;exitDy=0;exitPerimeter=0;" parent="1" source="9" target="22" edge="1">
                    <mxGeometry relative="1" as="geometry">
                        <Array as="points">
                            <mxPoint x="190" y="1160"/>
                            <mxPoint x="470" y="1160"/>
                            <mxPoint x="720" y="1160"/>
                        </Array>
                    </mxGeometry>
                </mxCell>
                <mxCell id="9" value="El numero ingresado no es de 5 digitos&amp;nbsp;" style="shape=document;whiteSpace=wrap;html=1;boundedLbl=1;fontSize=20;fillColor=#60a917;fontColor=#ffffff;strokeColor=#2D7600;" parent="1" vertex="1">
                    <mxGeometry x="110" y="550" width="150" height="120" as="geometry"/>
                </mxCell>
                <mxCell id="16" value="" style="edgeStyle=none;html=1;fontSize=20;exitX=0;exitY=0.5;exitDx=0;exitDy=0;entryX=0.5;entryY=0;entryDx=0;entryDy=0;" parent="1" source="11" target="15" edge="1">
                    <mxGeometry relative="1" as="geometry">
                        <Array as="points">
                            <mxPoint x="400" y="615"/>
                        </Array>
                    </mxGeometry>
                </mxCell>
                <mxCell id="18" value="" style="edgeStyle=none;html=1;fontSize=20;exitX=1;exitY=0.5;exitDx=0;exitDy=0;entryX=0.5;entryY=0;entryDx=0;entryDy=0;" parent="1" source="11" target="17" edge="1">
                    <mxGeometry relative="1" as="geometry">
                        <Array as="points">
                            <mxPoint x="860" y="615"/>
                        </Array>
                    </mxGeometry>
                </mxCell>
                <mxCell id="11" value="n%10 == n//10000" style="rhombus;whiteSpace=wrap;html=1;fontSize=20;fillColor=#647687;fontColor=#ffffff;strokeColor=#314354;" parent="1" vertex="1">
                    <mxGeometry x="530" y="520" width="190" height="190" as="geometry"/>
                </mxCell>
                <mxCell id="24" style="edgeStyle=none;html=1;entryX=0.5;entryY=0;entryDx=0;entryDy=0;fontSize=20;" parent="1" source="15" target="22" edge="1">
                    <mxGeometry relative="1" as="geometry">
                        <Array as="points">
                            <mxPoint x="400" y="1160"/>
                            <mxPoint x="720" y="1160"/>
                        </Array>
                    </mxGeometry>
                </mxCell>
                <mxCell id="15" value="El numero no es capicua" style="shape=document;whiteSpace=wrap;html=1;boundedLbl=1;fontSize=20;fillColor=#60a917;fontColor=#ffffff;strokeColor=#2D7600;" parent="1" vertex="1">
                    <mxGeometry x="330" y="980" width="140" height="90" as="geometry"/>
                </mxCell>
                <mxCell id="19" style="edgeStyle=none;html=1;fontSize=20;entryX=0.5;entryY=0;entryDx=0;entryDy=0;exitX=0;exitY=0.5;exitDx=0;exitDy=0;" parent="1" source="17" target="15" edge="1">
                    <mxGeometry relative="1" as="geometry">
                        <mxPoint x="390" y="902.5" as="targetPoint"/>
                        <Array as="points">
                            <mxPoint x="400" y="903"/>
                        </Array>
                    </mxGeometry>
                </mxCell>
                <mxCell id="21" value="" style="edgeStyle=none;html=1;fontSize=20;exitX=1;exitY=0.5;exitDx=0;exitDy=0;" parent="1" source="17" target="20" edge="1">
                    <mxGeometry relative="1" as="geometry">
                        <Array as="points">
                            <mxPoint x="1200" y="903"/>
                        </Array>
                    </mxGeometry>
                </mxCell>
                <mxCell id="17" value="((n%100)-n%10))/10 ==&amp;nbsp;(n//1000)%10" style="rhombus;whiteSpace=wrap;html=1;fontSize=20;fillColor=#647687;fontColor=#ffffff;strokeColor=#314354;" parent="1" vertex="1">
                    <mxGeometry x="710" y="775" width="300" height="255" as="geometry"/>
                </mxCell>
                <mxCell id="23" style="edgeStyle=none;html=1;entryX=0.5;entryY=0;entryDx=0;entryDy=0;fontSize=20;exitX=0.583;exitY=0.838;exitDx=0;exitDy=0;exitPerimeter=0;" parent="1" source="20" target="22" edge="1">
                    <mxGeometry relative="1" as="geometry">
                        <Array as="points">
                            <mxPoint x="1210" y="1160"/>
                            <mxPoint x="970" y="1160"/>
                            <mxPoint x="720" y="1160"/>
                        </Array>
                    </mxGeometry>
                </mxCell>
                <mxCell id="20" value="El numero es capicua" style="shape=document;whiteSpace=wrap;html=1;boundedLbl=1;fontSize=20;fillColor=#60a917;fontColor=#ffffff;strokeColor=#2D7600;" parent="1" vertex="1">
                    <mxGeometry x="1140" y="990" width="120" height="80" as="geometry"/>
                </mxCell>
                <mxCell id="22" value="fin" style="ellipse;whiteSpace=wrap;html=1;fontSize=20;fillColor=#1ba1e2;fontColor=#ffffff;strokeColor=#006EAF;" parent="1" vertex="1">
                    <mxGeometry x="660" y="1300" width="120" height="80" as="geometry"/>
                </mxCell>
            </root>
        </mxGraphModel>
    </diagram>
</mxfile>